<svg xmlns="http://www.w3.org/2000/svg" width="326" height="57" viewBox="0 0 326 57">
  <path id="パス_5" data-name="パス 5" d="M50.359-13.968,59.1-56.875h9.8L55.785.125H46.338L35.525-41.49,24.478.125H14.992l-13.117-57h9.8L20.5-14.047,31.348-56.875h8.276Zm58.985-11.353H86V-7.783h27.287V.125H76.124v-57h36.89v7.986H86v15.738h23.344ZM121.329.125v-57h19.48q9.642,0,14.678,3.876t5.036,11.549a12.334,12.334,0,0,1-2.108,7.047,13.575,13.575,0,0,1-6.168,4.854,12.543,12.543,0,0,1,7.124,4.717,13.767,13.767,0,0,1,2.518,8.319q0,8.025-5.133,12.332T142.058.125Zm9.876-25.72V-7.783h10.969a10.6,10.6,0,0,0,7.261-2.31,8.119,8.119,0,0,0,2.615-6.42q0-8.887-9.057-9.082Zm0-7.282h9.681a11.174,11.174,0,0,0,7.2-2.094,7.185,7.185,0,0,0,2.6-5.931q0-4.228-2.4-6.107t-7.476-1.879h-9.6Zm85.14,18.909,8.744-42.907h9.8l-13.117,57h-9.447L201.511-41.49,190.464.125h-9.486l-13.117-57h9.8l8.822,42.828,10.852-42.828h8.276Zm58.985-11.353H251.987V-7.783h27.287V.125H242.11v-57H279v7.986H251.987v15.738h23.344ZM287.315.125v-57h19.48q9.642,0,14.678,3.876t5.036,11.549A12.334,12.334,0,0,1,324.4-34.4a13.575,13.575,0,0,1-6.168,4.854,12.543,12.543,0,0,1,7.124,4.717,13.766,13.766,0,0,1,2.518,8.319q0,8.025-5.133,12.332T308.044.125Zm9.876-25.72V-7.783h10.969a10.6,10.6,0,0,0,7.261-2.31,8.119,8.119,0,0,0,2.616-6.42q0-8.887-9.057-9.082Zm0-7.282h9.681a11.174,11.174,0,0,0,7.2-2.094,7.185,7.185,0,0,0,2.6-5.931q0-4.228-2.4-6.107t-7.476-1.879h-9.6Z" transform="translate(-1.875 56.875)" fill="#333"/>
</svg>
